PathFileType	4	(X/Y/Z)	E:\Qualisys_Data\Carbon_Farble_Plate\Data\Amateur_Runner\S2\T3\S2T3V12_c3d.trc
DataRate	CameraRate	NumFrames	NumMarkers	Units	OrigDataRate	OrigDataStartFrame	OrigNumFrames
200.000000	200.000000	4	39	mm	200.000000	158	316
Frame#	Time	LSHO			RSHO			LICST			RICST			LASIS			LHEEL			RASIS			LTROC			RTROC			SACR			LTH1			LSK4			LTH2			LTH3			RHM5			LSK2			LTH4			RTH1			LTOE			RTH2			RTH3			RTH4			LLEP			RLEP			LSK1			LSK3			RSK1			LHM5			RSK2			LFT1			RSK3			RSK4			LLME			RLME			RTOE			RHEEL			RFT1			RFT2			LFT2			
		X1	Y1	Z1	X2	Y2	Z2	X3	Y3	Z3	X4	Y4	Z4	X5	Y5	Z5	X6	Y6	Z6	X7	Y7	Z7	X8	Y8	Z8	X9	Y9	Z9	X10	Y10	Z10	X11	Y11	Z11	X12	Y12	Z12	X13	Y13	Z13	X14	Y14	Z14	X15	Y15	Z15	X16	Y16	Z16	X17	Y17	Z17	X18	Y18	Z18	X19	Y19	Z19	X20	Y20	Z20	X21	Y21	Z21	X22	Y22	Z22	X23	Y23	Z23	X24	Y24	Z24	X25	Y25	Z25	X26	Y26	Z26	X27	Y27	Z27	X28	Y28	Z28	X29	Y29	Z29	X30	Y30	Z30	X31	Y31	Z31	X32	Y32	Z32	X33	Y33	Z33	X34	Y34	Z34	X35	Y35	Z35	X36	Y36	Z36	X37	Y37	Z37	X38	Y38	Z38	X39	Y39	Z39	

159	0.79	365.320556640625	1454.8740234375	-506.3303833007812	299.9778747558594	1432.35888671875	-201.6607055664062	267.9368896484375	1004.162963867188	-511.4828186035156	260.0753784179688	989.1822509765624	-213.2291870117188	319.5112609863281	951.03173828125	-495.8948669433594	-227.8841857910156	421.8658752441406	-431.3604431152344	320.0550537109375	944.6803588867188	-238.8607788085938	178.2854919433594	895.4668579101562	-519.8359375	184.1947784423828	880.0371704101562	-207.2619171142578	169.7280426025391	1041.377685546875	-367.3117370605469	244.1938629150391	637.7251586914062	-531.5825805664062	-73.06941986083984	467.1939392089844	-517.1365356445312	164.1935882568359	654.6290283203125	-536.8677978515625	220.1398162841797	536.8931884765625	-521.9365844726562	510.8306274414062	81.9648208618164	-228.8092498779297	19.9129581451416	499.9442138671875	-534.3402709960938	137.6997222900391	558.5205688476562	-516.105224609375	391.9964904785156	648.9246215820312	-202.0212097167969	-245.6897735595703	178.6002807617188	-484.3563842773438	316.2297973632812	626.9327392578125	-202.6588745117188	419.2494812011719	556.2332763671875	-234.5776519775391	341.7240295410156	535.7498779296875	-225.9600067138672	155.9783630371094	505.7099914550781	-525.5294799804688	380.1082153320312	510.1337280273438	-225.0056457519531	45.7938232421875	424.5544128417969	-532.74462890625	-49.13387298583984	392.7828979492188	-523.4652099609375	415.1217346191406	387.7816467285156	-222.6806945800781	-272.596923828125	249.2452239990234	-526.944580078125	334.9873046875	386.9953308105469	-216.8778686523438	-248.3740234375	407.8645935058594	-397.3234558105469	416.5689392089844	286.330078125	-235.1024322509766	337.1549377441406	288.3617248535156	-230.9102325439453	-224.7856903076172	372.0805358886719	-492.2803039550781	386.6624755859375	98.69461822509766	-265.1838684082031	576.700927734375	113.7971038818359	-278.9093017578125	335.3572998046875	76.34843444824219	-330.5050659179688	354.7411499023438	52.44713592529297	-357.0606079101562	334.9030151367188	50.08070755004883	-309.2184753417969	-261.78857421875	423.3051452636719	-445.7684631347656
160	0.795	380.6209716796875	1449.65673828125	-505.0520935058594	315.2633666992188	1426.743041992188	-200.3013000488281	282.9557800292969	998.9868774414062	-510.8526916503906	273.9097900390625	984.69189453125	-212.5298004150391	334.8822326660156	946.2824096679688	-494.9015197753906	-207.8262786865234	426.0082397460938	-430.1644592285156	334.6784973144531	940.6972045898438	-237.4661560058594	194.1491394042969	889.27783203125	-519.6064453125	198.7071228027344	875.0474243164062	-207.0617980957031	184.8885192871094	1036.019653320312	-367.064208984375	263.2810974121094	631.636474609375	-531.4110107421875	-52.1926155090332	466.1466064453125	-516.9548950195312	182.9800872802734	647.9752197265625	-536.2606201171875	241.1832733154297	531.0751342773438	-521.5745849609375	517.2577514648438	71.94269561767578	-232.2332153320312	41.90097427368164	496.4263916015625	-534.06298828125	158.1020050048828	551.1744995117188	-515.9608764648438	406.5561218261719	646.2506103515625	-203.5508117675781	-230.5833587646484	183.0270080566406	-484.2231750488281	330.9720458984375	623.9949951171875	-204.2264099121094	434.0772094726562	552.8307495117188	-234.7442474365234	357.2037353515625	532.6326293945312	-225.7465209960938	177.0106201171875	499.4664306640625	-525.5654296875	394.6658630371094	506.1336364746094	-225.3296508789062	65.7244873046875	420.7367858886719	-532.6485595703125	-29.46136283874512	391.03955078125	-523.095947265625	428.2638854980469	382.3818969726562	-223.651611328125	-256.676513671875	254.1190338134766	-526.1666259765625	348.5090637207031	382.5368957519531	-217.5747375488281	-228.3623046875	411.8191833496094	-396.8626403808594	428.4525756835938	281.2597045898438	-236.3956298828125	349.0785827636719	284.5222778320312	-231.6084594726562	-205.7413330078125	376.0712280273438	-491.5463256835938	394.6150512695312	95.00891876220705	-266.3241271972656	584.8038330078125	99.50495147705078	-282.4784545898438	340.50732421875	77.64217376708984	-330.5576782226562	358.2093200683594	51.97919464111328	-356.9273071289062	339.1432189941406	52.84184646606445	-308.5380554199219	-241.4144897460938	427.3003845214844	-445.1293640136719
161	0.8	395.9945983886719	1444.408203125	-504.06787109375	330.3839721679688	1420.91455078125	-198.840087890625	298.3113098144531	993.7490234375	-510.3060302734375	287.6055297851562	979.9345703125	-211.6389770507812	350.217529296875	941.1201171875	-493.8394470214844	-187.1281585693359	429.2989807128906	-429.5716857910156	349.2710266113281	936.2549438476562	-236.5243377685547	210.0555725097656	882.8900756835938	-519.4819946289062	213.1074981689453	870.2683715820312	-206.6662750244141	199.5457916259766	1031.082763671875	-366.4432067871094	282.3561096191406	626.0083618164062	-531.4927368164062	-30.63380241394043	465.0307922363281	-516.6199951171875	201.9954071044922	640.9069213867188	-535.92822265625	261.9075622558594	524.63134765625	-522.230224609375	523.2642211914062	62.73572158813477	-235.0293273925781	64.2516098022461	493.1711730957031	-534.0281982421875	178.7036437988281	543.9677124023438	-516.20703125	421.0841979980469	642.9121704101562	-205.9368743896484	-214.5054931640625	187.0662841796875	-484.5875854492188	346.2925109863281	620.4694213867188	-206.6650848388672	449.0018920898438	548.7042236328125	-234.7592315673828	371.6949462890625	528.5750122070312	-225.6238555908203	198.6106109619141	492.7248840332031	-525.8908081054688	409.1984558105469	501.743408203125	-225.6442413330078	86.05725860595703	416.8129577636719	-532.7101440429688	-10.12017250061035	389.4677429199219	-521.8649291992188	442.0664978027344	377.1925354003906	-224.6871643066406	-240.1479187011719	258.3986511230469	-525.3764038085938	362.1705932617188	378.4483947753906	-217.9323425292969	-207.1889190673828	415.4361572265625	-396.1228637695312	440.0024719238281	275.5858459472656	-238.0601806640625	360.6980895996094	280.1883850097656	-232.6492004394531	-186.2278900146484	379.9483337402344	-490.5085144042969	401.1358642578125	92.29187774658205	-266.5140991210938	592.3560180664062	84.27191162109375	-285.9622802734375	344.7326354980469	78.73918914794922	-329.3391418457031	360.6956481933594	51.97757720947266	-356.9296875	342.5375061035156	53.95656585693359	-307.8038635253906	-220.2765655517578	431.7760620117188	-445.2904357910156
162	0.805	411.1030883789062	1439.366455078125	-503.244140625	345.5850830078125	1414.86962890625	-197.3894805908203	313.4290161132812	988.0362548828124	-509.5846862792969	301.6965026855469	975.1719360351562	-210.9654998779297	365.3643188476562	935.6590576171876	-492.9834899902344	-166.3816986083984	431.8836059570312	-428.69921875	363.4124450683594	931.9221801757812	-234.9452362060547	226.2540283203125	876.164794921875	-519.2453002929688	227.5888671875	865.3118286132812	-206.1349487304688	214.3078460693359	1025.305786132812	-365.7798461914062	302.2051696777344	619.7860717773438	-530.884521484375	-8.707475662231445	463.7342529296875	-516.6937866210938	221.5120086669922	634.1145629882812	-535.294921875	283.0611267089844	518.7147216796875	-522.6126708984375	528.5639038085938	63.75776290893555	-234.8163909912109	86.78885650634766	489.6495361328125	-533.84375	199.5466613769531	536.4093017578125	-515.9855346679688	435.2809448242188	638.8162231445312	-207.3807830810547	-197.5378265380859	190.9198913574219	-484.8874206542969	360.5924377441406	616.4463500976562	-207.1710052490234	463.4178466796875	544.2910766601562	-234.5742950439453	385.9741516113281	524.3745727539062	-225.5110626220703	220.3767547607422	486.1582641601562	-526.2723388671875	423.236572265625	496.7945556640625	-225.7463836669922	106.6181945800781	412.2762451171875	-532.3545532226562	9.815579414367676	387.9277648925781	-521.7380981445312	455.6946411132812	371.3365478515625	-226.0761260986328	-222.4367828369141	263.3818664550781	-525.731689453125	375.9486389160156	374.4897155761719	-218.2880554199219	-186.5728912353516	418.4887390136719	-395.0812683105469	451.7500915527344	270.4031982421875	-239.2091979980469	372.3488159179688	276.326171875	-232.7626647949219	-166.6778411865234	383.0262451171875	-489.9239501953125	405.6316223144531	89.44827270507812	-267.6618347167969	597.7621459960938	74.4817886352539	-292.9762573242188	347.7455444335938	78.24470520019531	-330.2882995605469	362.414306640625	51.27295303344727	-356.7761535644531	344.0507202148438	53.17304992675781	-308.7270812988281	-199.3393096923828	435.4329833984375	-444.1405029296875
